<svg xmlns="http://www.w3.org/2000/svg" version="1.1" xmlnsXlink="http://www.w3.org/1999/xlink" xmlnsSvgjs="http://svgjs.dev/svgjs" width="128" height="128" viewBox="0 0 128 128"><g transform="matrix(0.8046875,0,0,0.8046875,12.333870967741937,12.333870967741937)"><svg viewBox="0 0 155 155" data-background-color="#000000" preserveAspectRatio="xMidYMid meet" height="128" width="128" xmlns="http://www.w3.org/2000/svg" xmlnsXlink="http://www.w3.org/1999/xlink"><g id="tight-bounds" transform="matrix(1,0,0,1,0.25,0.25)"><svg viewBox="0 0 154.5 154.5" height="154.5" width="154.5"><rect width="154.5" height="154.5" fill="url(#9c16e45a-95d5-4b96-b297-1d59d381eb86)" mask="url(#a549ae34-b11f-45ec-8839-849948c02c44)" data-fill-palette-color="tertiary"></rect><g><svg></svg></g><g><svg viewBox="0 0 154.5 154.5" height="154.5" width="154.5"><g transform="matrix(1,0,0,1,54.66880827679783,43.83165)"><svg viewBox="0 0 45.162383446404334 66.8367" height="66.8367" width="45.162383446404334"><g><svg viewBox="0 0 45.162383446404334 66.8367" height="66.8367" width="45.162383446404334"><g><svg viewBox="0 0 45.162383446404334 66.8367" height="66.8367" width="45.162383446404334"><g id="textblocktransform"><svg viewBox="0 0 45.162383446404334 66.8367" height="66.8367" width="45.162383446404334" id="textblock"><g><svg viewBox="0 0 45.162383446404334 66.8367" height="66.8367" width="45.162383446404334"><g transform="matrix(1,0,0,1,0,0)"><svg width="45.162383446404334" viewBox="4.69 -35.99 24.31 35.99" height="66.8367" data-palette-color="url(#5bfcc7f7-170d-4cba-9f5f-30cf9c7810ff)"></svg></g></svg></g></svg></g></svg></g><g></g></svg></g></svg></g><g><path d="M0 154.5v-154.5h154.5v154.5zM148.473 148.473v-142.446h-142.446v142.446z" fill="url(#9c16e45a-95d5-4b96-b297-1d59d381eb86)" fill-rule="nonzero" stroke="none" stroke-width="1" stroke-linecap="butt" stroke-linejoin="miter" stroke-miterlimit="10" stroke-dasharray="" stroke-dashoffset="0" font-family="none" font-weight="none" font-size="none" text-anchor="none" style="mix-blend-mode: normal" data-fill-palette-color="tertiary"></path></g></svg></g><defs></defs><mask id="00cf6c91-4afc-4ba4-ba3d-659f42c8a017"><g id="SvgjsG2163"><svg viewBox="0 0 154.5 154.5" height="154.5" width="154.5"><g><svg></svg></g><g><svg viewBox="0 0 154.5 154.5" height="154.5" width="154.5"><g transform="matrix(1,0,0,1,54.66880827679783,43.83165)"><svg viewBox="0 0 45.162383446404334 66.8367" height="66.8367" width="45.162383446404334"><g><svg viewBox="0 0 45.162383446404334 66.8367" height="66.8367" width="45.162383446404334"><g><svg viewBox="0 0 45.162383446404334 66.8367" height="66.8367" width="45.162383446404334"><g id="SvgjsG2162"><svg viewBox="0 0 45.162383446404334 66.8367" height="66.8367" width="45.162383446404334" id="SvgjsSvg2161"><g><svg viewBox="0 0 45.162383446404334 66.8367" height="66.8367" width="45.162383446404334"><g transform="matrix(1,0,0,1,0,0)"><svg width="45.162383446404334" viewBox="4.69 -35.99 24.31 35.99" height="66.8367" data-palette-color="url(#5bfcc7f7-170d-4cba-9f5f-30cf9c7810ff)"><path d="M21.68-18.95L21.68-18.95Q22.8-18.8 24.07-18.21 25.34-17.63 26.44-16.55 27.54-15.48 28.27-13.94 29-12.4 29-10.4L29-10.4Q29-7.96 28.27-6.2 27.54-4.44 26.44-3.3 25.34-2.15 24.05-1.49 22.75-0.83 21.56-0.49 20.36-0.15 19.43-0.07 18.51 0 18.21 0L18.21 0 12.55 0 12.55-4.3 17.87-4.3Q20.46-4.3 21.92-5.96 23.39-7.62 23.39-10.4L23.39-10.4Q23.39-13.04 21.88-14.84 20.36-16.65 17.43-16.65L17.43-16.65 12.55-16.65 12.55-20.61 14.89-20.61Q15.97-20.61 17.09-20.65 18.21-20.7 19.19-21.19 20.17-21.68 20.78-22.85 21.39-24.02 21.39-26.22L21.39-26.22Q21.39-27.1 21.14-28.05 20.9-29 20.17-29.79 19.43-30.57 18.07-31.05 16.7-31.54 14.45-31.54L14.45-31.54 12.55-31.54 12.55-35.99 15.04-35.99Q17.33-35.99 19.48-35.45 21.63-34.91 23.29-33.74 24.95-32.57 25.93-30.69 26.9-28.81 26.9-26.22L26.9-26.22Q26.9-24.71 26.42-23.46 25.93-22.22 25.2-21.29 24.46-20.36 23.51-19.75 22.56-19.14 21.68-18.95ZM4.69 0L4.69-35.99 10.55-35.99 10.55 0 4.69 0Z" opacity="1" transform="matrix(1,0,0,1,0,0)" fill="white" class="wordmark-text-0" id="SvgjsPath2160"></path></svg></g></svg></g></svg></g></svg></g><g></g></svg></g></svg></g><g><path d="M0 154.5v-154.5h154.5v154.5zM148.473 148.473v-142.446h-142.446v142.446z" fill="black" fill-rule="nonzero" stroke="none" stroke-width="1" stroke-linecap="butt" stroke-linejoin="miter" stroke-miterlimit="10" stroke-dasharray="" stroke-dashoffset="0" font-family="none" font-weight="none" font-size="none" text-anchor="none" style="mix-blend-mode: normal"></path></g></svg></g><defs><mask></mask></defs></svg><rect width="154.5" height="154.5" fill="black" stroke="none" visibility="hidden"></rect></g></mask><linearGradient x1="0" x2="1" y1="0.548" y2="0.55" id="5bfcc7f7-170d-4cba-9f5f-30cf9c7810ff"><stop stop-color="#ff6cab" offset="0"></stop><stop stop-color="#7366ff" offset="1"></stop></linearGradient><rect width="154.5" height="154.5" fill="url(#5bfcc7f7-170d-4cba-9f5f-30cf9c7810ff)" mask="url(#00cf6c91-4afc-4ba4-ba3d-659f42c8a017)" data-fill-palette-color="primary"></rect><mask id="a549ae34-b11f-45ec-8839-849948c02c44"><g id="SvgjsG2186"><svg viewBox="0 0 154.5 154.5" height="154.5" width="154.5"><g><svg></svg></g><g><svg viewBox="0 0 154.5 154.5" height="154.5" width="154.5"><g transform="matrix(1,0,0,1,54.66880827679783,43.83165)"><svg viewBox="0 0 45.162383446404334 66.8367" height="66.8367" width="45.162383446404334"><g><svg viewBox="0 0 45.162383446404334 66.8367" height="66.8367" width="45.162383446404334"><g><svg viewBox="0 0 45.162383446404334 66.8367" height="66.8367" width="45.162383446404334"><g id="SvgjsG2185"><svg viewBox="0 0 45.162383446404334 66.8367" height="66.8367" width="45.162383446404334" id="SvgjsSvg2184"><g><svg viewBox="0 0 45.162383446404334 66.8367" height="66.8367" width="45.162383446404334"><g transform="matrix(1,0,0,1,0,0)"><svg width="45.162383446404334" viewBox="4.69 -35.99 24.31 35.99" height="66.8367" data-palette-color="url(#5bfcc7f7-170d-4cba-9f5f-30cf9c7810ff)"></svg></g></svg></g></svg></g></svg></g><g></g></svg></g></svg></g><g><path d="M0 154.5v-154.5h154.5v154.5zM148.473 148.473v-142.446h-142.446v142.446z" fill="white" fill-rule="nonzero" stroke="none" stroke-width="1" stroke-linecap="butt" stroke-linejoin="miter" stroke-miterlimit="10" stroke-dasharray="" stroke-dashoffset="0" font-family="none" font-weight="none" font-size="none" text-anchor="none" style="mix-blend-mode: normal"></path></g></svg></g><defs><mask></mask></defs><mask><g id="SvgjsG2183"><svg viewBox="0 0 154.5 154.5" height="154.5" width="154.5"><g><svg></svg></g><g><svg viewBox="0 0 154.5 154.5" height="154.5" width="154.5"><g transform="matrix(1,0,0,1,54.66880827679783,43.83165)"><svg viewBox="0 0 45.162383446404334 66.8367" height="66.8367" width="45.162383446404334"><g><svg viewBox="0 0 45.162383446404334 66.8367" height="66.8367" width="45.162383446404334"><g><svg viewBox="0 0 45.162383446404334 66.8367" height="66.8367" width="45.162383446404334"><g id="SvgjsG2182"><svg viewBox="0 0 45.162383446404334 66.8367" height="66.8367" width="45.162383446404334" id="SvgjsSvg2181"><g><svg viewBox="0 0 45.162383446404334 66.8367" height="66.8367" width="45.162383446404334"><g transform="matrix(1,0,0,1,0,0)"><svg width="45.162383446404334" viewBox="4.69 -35.99 24.31 35.99" height="66.8367" data-palette-color="url(#5bfcc7f7-170d-4cba-9f5f-30cf9c7810ff)"><path d="M21.68-18.95L21.68-18.95Q22.8-18.8 24.07-18.21 25.34-17.63 26.44-16.55 27.54-15.48 28.27-13.94 29-12.4 29-10.4L29-10.4Q29-7.96 28.27-6.2 27.54-4.44 26.44-3.3 25.34-2.15 24.05-1.49 22.75-0.83 21.56-0.49 20.36-0.15 19.43-0.07 18.51 0 18.21 0L18.21 0 12.55 0 12.55-4.3 17.87-4.3Q20.46-4.3 21.92-5.96 23.39-7.62 23.39-10.4L23.39-10.4Q23.39-13.04 21.88-14.84 20.36-16.65 17.43-16.65L17.43-16.65 12.55-16.65 12.55-20.61 14.89-20.61Q15.97-20.61 17.09-20.65 18.21-20.7 19.19-21.19 20.17-21.68 20.78-22.85 21.39-24.02 21.39-26.22L21.39-26.22Q21.39-27.1 21.14-28.05 20.9-29 20.17-29.79 19.43-30.57 18.07-31.05 16.7-31.54 14.45-31.54L14.45-31.54 12.55-31.54 12.55-35.99 15.04-35.99Q17.33-35.99 19.48-35.45 21.63-34.91 23.29-33.74 24.95-32.57 25.93-30.69 26.9-28.81 26.9-26.22L26.9-26.22Q26.9-24.71 26.42-23.46 25.93-22.22 25.2-21.29 24.46-20.36 23.51-19.75 22.56-19.14 21.68-18.95ZM4.69 0L4.69-35.99 10.55-35.99 10.55 0 4.69 0Z" opacity="1" transform="matrix(1,0,0,1,0,0)" fill="black" class="wordmark-text-0" id="SvgjsPath2180"></path></svg></g></svg></g></svg></g></svg></g><g></g></svg></g></svg></g><g><path d="M0 154.5v-154.5h154.5v154.5zM148.473 148.473v-142.446h-142.446v142.446z" fill="black" fill-rule="nonzero" stroke="none" stroke-width="1" stroke-linecap="butt" stroke-linejoin="miter" stroke-miterlimit="10" stroke-dasharray="" stroke-dashoffset="0" font-family="none" font-weight="none" font-size="none" text-anchor="none" style="mix-blend-mode: normal"></path></g></svg></g><defs><mask></mask></defs></svg><rect width="154.5" height="154.5" fill="black" stroke="none" visibility="hidden"></rect></g></mask></svg><rect width="154.5" height="154.5" fill="black" stroke="none" visibility="hidden"></rect></g></mask><linearGradient x1="0" x2="1" y1="0.548" y2="0.55" id="9c16e45a-95d5-4b96-b297-1d59d381eb86"><stop stop-color="#ff6cab" offset="0"></stop><stop stop-color="#7366ff" offset="1"></stop></linearGradient></svg><rect width="154.5" height="154.5" fill="none" stroke="none" visibility="hidden"></rect></g></svg></g></svg>