<svg xmlns="http://www.w3.org/2000/svg" version="1.1" xmlnsXlink="http://www.w3.org/1999/xlink" xmlnsSvgjs="http://svgjs.dev/svgjs" width="2000" height="1247" viewBox="0 0 2000 1247"><g transform="matrix(1,0,0,1,-1.2121212121212466,0.504858299595071)"><svg viewBox="0 0 396 247" data-background-color="#000000" preserveAspectRatio="xMidYMid meet" height="1247" width="2000" xmlns="http://www.w3.org/2000/svg" xmlnsXlink="http://www.w3.org/1999/xlink"><g id="tight-bounds" transform="matrix(1,0,0,1,0.2400000000000091,-0.09999999999999432)"><svg viewBox="0 0 395.52 247.2" height="247.2" width="395.52"><rect width="395.52" height="247.2" fill="url(#22b42532-6977-4871-836b-54a762879c06)" mask="url(#1c5deb1c-dc75-416f-91ab-5817b555f8e6)" data-fill-palette-color="tertiary"></rect><g><svg></svg></g><g><svg viewBox="0 0 395.52 247.2" height="247.2" width="395.52"><g transform="matrix(1,0,0,1,59.468873812754396,37.08)"><svg viewBox="0 0 276.5822523744912 173.04" height="173.04" width="276.5822523744912"><g><svg viewBox="0 0 276.5822523744912 173.04" height="173.04" width="276.5822523744912"><g><svg viewBox="0 0 276.5822523744912 173.04" height="173.04" width="276.5822523744912"><g><svg viewBox="0 0 276.5822523744912 173.04" height="173.04" width="276.5822523744912"><g id="textblocktransform"><svg viewBox="0 0 276.5822523744912 173.04" height="173.04" width="276.5822523744912" id="textblock"><g><svg viewBox="0 0 276.5822523744912 173.04" height="173.04" width="276.5822523744912"><g transform="matrix(1,0,0,1,0,0)"><svg width="276.5822523744912" viewBox="4.69 -35.99 57.510000000000005 35.99" height="173.04" data-palette-color="url(#7c0f3e3c-4974-4206-b063-59ff68085379)"></svg></g></svg></g></svg></g></svg></g><g></g></svg></g></svg></g></svg></g><g><path d="M0 247.2v-247.2h395.52v247.2zM379.915 231.595v-215.99h-364.31v215.99z" fill="url(#22b42532-6977-4871-836b-54a762879c06)" fill-rule="nonzero" stroke="none" stroke-width="1" stroke-linecap="butt" stroke-linejoin="miter" stroke-miterlimit="10" stroke-dasharray="" stroke-dashoffset="0" font-family="none" font-weight="none" font-size="none" text-anchor="none" style="mix-blend-mode: normal" data-fill-palette-color="tertiary"></path></g></svg></g><defs></defs><mask id="3cb84f64-7f6e-4841-9a57-ee4632de872c"><g id="SvgjsG1421"><svg viewBox="0 0 395.52 247.2" height="247.2" width="395.52"><g><svg></svg></g><g><svg viewBox="0 0 395.52 247.2" height="247.2" width="395.52"><g transform="matrix(1,0,0,1,59.468873812754396,37.08)"><svg viewBox="0 0 276.5822523744912 173.04" height="173.04" width="276.5822523744912"><g><svg viewBox="0 0 276.5822523744912 173.04" height="173.04" width="276.5822523744912"><g><svg viewBox="0 0 276.5822523744912 173.04" height="173.04" width="276.5822523744912"><g><svg viewBox="0 0 276.5822523744912 173.04" height="173.04" width="276.5822523744912"><g id="SvgjsG1420"><svg viewBox="0 0 276.5822523744912 173.04" height="173.04" width="276.5822523744912" id="SvgjsSvg1419"><g><svg viewBox="0 0 276.5822523744912 173.04" height="173.04" width="276.5822523744912"><g transform="matrix(1,0,0,1,0,0)"><svg width="276.5822523744912" viewBox="4.69 -35.99 57.510000000000005 35.99" height="173.04" data-palette-color="url(#7c0f3e3c-4974-4206-b063-59ff68085379)"><path d="M21.68-18.95L21.68-18.95Q22.8-18.8 24.07-18.21 25.34-17.63 26.44-16.55 27.54-15.48 28.27-13.94 29-12.4 29-10.4L29-10.4Q29-7.96 28.27-6.2 27.54-4.44 26.44-3.3 25.34-2.15 24.05-1.49 22.75-0.83 21.56-0.49 20.36-0.15 19.43-0.07 18.51 0 18.21 0L18.21 0 12.55 0 12.55-4.3 17.87-4.3Q20.46-4.3 21.92-5.96 23.39-7.62 23.39-10.4L23.39-10.4Q23.39-13.04 21.88-14.84 20.36-16.65 17.43-16.65L17.43-16.65 12.55-16.65 12.55-20.61 14.89-20.61Q15.97-20.61 17.09-20.65 18.21-20.7 19.19-21.19 20.17-21.68 20.78-22.85 21.39-24.02 21.39-26.22L21.39-26.22Q21.39-27.1 21.14-28.05 20.9-29 20.17-29.79 19.43-30.57 18.07-31.05 16.7-31.54 14.45-31.54L14.45-31.54 12.55-31.54 12.55-35.99 15.04-35.99Q17.33-35.99 19.48-35.45 21.63-34.91 23.29-33.74 24.95-32.57 25.93-30.69 26.9-28.81 26.9-26.22L26.9-26.22Q26.9-24.71 26.42-23.46 25.93-22.22 25.2-21.29 24.46-20.36 23.51-19.75 22.56-19.14 21.68-18.95ZM4.69 0L4.69-35.99 10.55-35.99 10.55 0 4.69 0ZM45.55-12.01L55.52-35.99 62.2-35.99 51.51-14.65 51.51 0 45.55 0 45.55-12.01ZM35.4-35.99L42.09-35.99 47.51-21.97 44.87-15.58 35.4-35.99Z" opacity="1" transform="matrix(1,0,0,1,0,0)" fill="white" class="wordmark-text-0" id="SvgjsPath1418"></path></svg></g></svg></g></svg></g></svg></g><g></g></svg></g></svg></g></svg></g><g><path d="M0 247.2v-247.2h395.52v247.2zM379.915 231.595v-215.99h-364.31v215.99z" fill="black" fill-rule="nonzero" stroke="none" stroke-width="1" stroke-linecap="butt" stroke-linejoin="miter" stroke-miterlimit="10" stroke-dasharray="" stroke-dashoffset="0" font-family="none" font-weight="none" font-size="none" text-anchor="none" style="mix-blend-mode: normal"></path></g></svg></g><defs><mask></mask></defs></svg><rect width="395.52" height="247.2" fill="black" stroke="none" visibility="hidden"></rect></g></mask><linearGradient x1="0" x2="1" y1="0.548" y2="0.55" id="7c0f3e3c-4974-4206-b063-59ff68085379"><stop stop-color="#ff6cab" offset="0"></stop><stop stop-color="#7366ff" offset="1"></stop></linearGradient><rect width="395.52" height="247.2" fill="url(#7c0f3e3c-4974-4206-b063-59ff68085379)" mask="url(#3cb84f64-7f6e-4841-9a57-ee4632de872c)" data-fill-palette-color="primary"></rect><mask id="1c5deb1c-dc75-416f-91ab-5817b555f8e6"><g id="SvgjsG1444"><svg viewBox="0 0 395.52 247.2" height="247.2" width="395.52"><g><svg></svg></g><g><svg viewBox="0 0 395.52 247.2" height="247.2" width="395.52"><g transform="matrix(1,0,0,1,59.468873812754396,37.08)"><svg viewBox="0 0 276.5822523744912 173.04" height="173.04" width="276.5822523744912"><g><svg viewBox="0 0 276.5822523744912 173.04" height="173.04" width="276.5822523744912"><g><svg viewBox="0 0 276.5822523744912 173.04" height="173.04" width="276.5822523744912"><g><svg viewBox="0 0 276.5822523744912 173.04" height="173.04" width="276.5822523744912"><g id="SvgjsG1443"><svg viewBox="0 0 276.5822523744912 173.04" height="173.04" width="276.5822523744912" id="SvgjsSvg1442"><g><svg viewBox="0 0 276.5822523744912 173.04" height="173.04" width="276.5822523744912"><g transform="matrix(1,0,0,1,0,0)"><svg width="276.5822523744912" viewBox="4.69 -35.99 57.510000000000005 35.99" height="173.04" data-palette-color="url(#7c0f3e3c-4974-4206-b063-59ff68085379)"></svg></g></svg></g></svg></g></svg></g><g></g></svg></g></svg></g></svg></g><g><path d="M0 247.2v-247.2h395.52v247.2zM379.915 231.595v-215.99h-364.31v215.99z" fill="white" fill-rule="nonzero" stroke="none" stroke-width="1" stroke-linecap="butt" stroke-linejoin="miter" stroke-miterlimit="10" stroke-dasharray="" stroke-dashoffset="0" font-family="none" font-weight="none" font-size="none" text-anchor="none" style="mix-blend-mode: normal"></path></g></svg></g><defs><mask></mask></defs><mask><g id="SvgjsG1441"><svg viewBox="0 0 395.52 247.2" height="247.2" width="395.52"><g><svg></svg></g><g><svg viewBox="0 0 395.52 247.2" height="247.2" width="395.52"><g transform="matrix(1,0,0,1,59.468873812754396,37.08)"><svg viewBox="0 0 276.5822523744912 173.04" height="173.04" width="276.5822523744912"><g><svg viewBox="0 0 276.5822523744912 173.04" height="173.04" width="276.5822523744912"><g><svg viewBox="0 0 276.5822523744912 173.04" height="173.04" width="276.5822523744912"><g><svg viewBox="0 0 276.5822523744912 173.04" height="173.04" width="276.5822523744912"><g id="SvgjsG1440"><svg viewBox="0 0 276.5822523744912 173.04" height="173.04" width="276.5822523744912" id="SvgjsSvg1439"><g><svg viewBox="0 0 276.5822523744912 173.04" height="173.04" width="276.5822523744912"><g transform="matrix(1,0,0,1,0,0)"><svg width="276.5822523744912" viewBox="4.69 -35.99 57.510000000000005 35.99" height="173.04" data-palette-color="url(#7c0f3e3c-4974-4206-b063-59ff68085379)"><path d="M21.68-18.95L21.68-18.95Q22.8-18.8 24.07-18.21 25.34-17.63 26.44-16.55 27.54-15.48 28.27-13.94 29-12.4 29-10.4L29-10.4Q29-7.96 28.27-6.2 27.54-4.44 26.44-3.3 25.34-2.15 24.05-1.49 22.75-0.83 21.56-0.49 20.36-0.15 19.43-0.07 18.51 0 18.21 0L18.21 0 12.55 0 12.55-4.3 17.87-4.3Q20.46-4.3 21.92-5.96 23.39-7.62 23.39-10.4L23.39-10.4Q23.39-13.04 21.88-14.84 20.36-16.65 17.43-16.65L17.43-16.65 12.55-16.65 12.55-20.61 14.89-20.61Q15.97-20.61 17.09-20.65 18.21-20.7 19.19-21.19 20.17-21.68 20.78-22.85 21.39-24.02 21.39-26.22L21.39-26.22Q21.39-27.1 21.14-28.05 20.9-29 20.17-29.79 19.43-30.57 18.07-31.05 16.7-31.54 14.45-31.54L14.45-31.54 12.55-31.54 12.55-35.99 15.04-35.99Q17.33-35.99 19.48-35.45 21.63-34.91 23.29-33.74 24.95-32.57 25.93-30.69 26.9-28.81 26.9-26.22L26.9-26.22Q26.9-24.71 26.42-23.46 25.93-22.22 25.2-21.29 24.46-20.36 23.51-19.75 22.56-19.14 21.68-18.95ZM4.69 0L4.69-35.99 10.55-35.99 10.55 0 4.69 0ZM45.55-12.01L55.52-35.99 62.2-35.99 51.51-14.65 51.51 0 45.55 0 45.55-12.01ZM35.4-35.99L42.09-35.99 47.51-21.97 44.87-15.58 35.4-35.99Z" opacity="1" transform="matrix(1,0,0,1,0,0)" fill="black" class="wordmark-text-0" id="SvgjsPath1438"></path></svg></g></svg></g></svg></g></svg></g><g></g></svg></g></svg></g></svg></g><g><path d="M0 247.2v-247.2h395.52v247.2zM379.915 231.595v-215.99h-364.31v215.99z" fill="black" fill-rule="nonzero" stroke="none" stroke-width="1" stroke-linecap="butt" stroke-linejoin="miter" stroke-miterlimit="10" stroke-dasharray="" stroke-dashoffset="0" font-family="none" font-weight="none" font-size="none" text-anchor="none" style="mix-blend-mode: normal"></path></g></svg></g><defs><mask></mask></defs></svg><rect width="395.52" height="247.2" fill="black" stroke="none" visibility="hidden"></rect></g></mask></svg><rect width="395.52" height="247.2" fill="black" stroke="none" visibility="hidden"></rect></g></mask><linearGradient x1="0" x2="1" y1="0.548" y2="0.55" id="22b42532-6977-4871-836b-54a762879c06"><stop stop-color="#ff6cab" offset="0"></stop><stop stop-color="#7366ff" offset="1"></stop></linearGradient></svg><rect width="395.52" height="247.2" fill="none" stroke="none" visibility="hidden"></rect></g></svg></g></svg>